<svg xmlns="http://www.w3.org/2000/svg" width="120" height="125" viewBox="0 0 120 125"><defs><style>.a{fill:rgba(100,184,223,0.1);}.a,.b{stroke-miterlimit:10;}.b{fill:none;stroke:#64b8df;stroke-width:2px;}.c,.d{stroke:none;}.d{fill:#64b8df;}</style></defs><g transform="translate(-2343 -416)"><g class="a"><path class="c" d="M 2346.89697265625 539.9954223632813 C 2350.624755859375 537.4567260742188 2354.093505859375 533.4609375 2357.24609375 528.0653686523438 C 2360.347900390625 522.75634765625 2361.935302734375 518.107666015625 2362.001220703125 517.912353515625 L 2362.19580078125 517.3368530273438 L 2361.77490234375 516.8988647460938 C 2356.59814453125 511.5149841308594 2352.53857421875 505.2911682128906 2349.708740234375 498.4003601074219 C 2346.776611328125 491.2606811523438 2345.2900390625 483.6891174316406 2345.2900390625 475.89599609375 C 2345.2900390625 467.9434204101563 2346.833251953125 460.2293701171875 2349.87646484375 452.9681701660156 C 2351.33935546875 449.4783325195313 2353.149658203125 446.1123657226563 2355.257568359375 442.9637451171875 C 2357.345458984375 439.8449401855469 2359.743408203125 436.9121704101563 2362.384521484375 434.2468872070313 C 2365.025634765625 431.5817565917969 2367.931640625 429.1622314453125 2371.02197265625 427.0554809570313 C 2374.141357421875 424.9287719726563 2377.47607421875 423.1022644042969 2380.933349609375 421.6265869140625 C 2388.126220703125 418.5566101074219 2395.767578125 417 2403.64501953125 417 C 2411.522216796875 417 2419.163330078125 418.5566101074219 2426.356201171875 421.6265869140625 C 2429.8134765625 423.1022644042969 2433.148193359375 424.9287719726563 2436.267822265625 427.0554809570313 C 2439.35791015625 429.1622314453125 2442.263916015625 431.581787109375 2444.905029296875 434.2468872070313 C 2447.54638671875 436.9121704101563 2449.944091796875 439.8449401855469 2452.0322265625 442.9637451171875 C 2454.14013671875 446.1123657226563 2455.95068359375 449.4783630371094 2457.413330078125 452.9681701660156 C 2460.456787109375 460.2294311523438 2462 467.9434509277344 2462 475.89599609375 C 2462 483.8485717773438 2460.456787109375 491.5625915527344 2457.413330078125 498.8238220214844 C 2455.95068359375 502.3136596679688 2454.14013671875 505.6796264648438 2452.0322265625 508.8282775878906 C 2449.944091796875 511.9470520019531 2447.54638671875 514.8798217773438 2444.905029296875 517.5451049804688 C 2442.263916015625 520.210205078125 2439.35791015625 522.6297607421875 2436.267822265625 524.736572265625 C 2433.148193359375 526.8632202148438 2429.8134765625 528.6897583007813 2426.356201171875 530.1654052734375 C 2419.163330078125 533.2354125976563 2411.522216796875 534.7919921875 2403.64501953125 534.7919921875 C 2396.721435546875 534.7919921875 2389.945068359375 533.5789794921875 2383.504150390625 531.1865844726563 L 2382.942138671875 530.9779052734375 L 2382.4931640625 531.3751831054688 C 2382.08154296875 531.7396240234375 2381.667724609375 532.0438232421875 2381.19091796875 532.3327026367188 C 2369.59423828125 539.3536987304688 2360.560546875 539.9454956054688 2346.89697265625 539.9954223632813 Z"/><path class="d" d="M 2403.64501953125 418 C 2395.9033203125 418 2388.39404296875 419.5296020507813 2381.325927734375 422.5463256835938 C 2377.92822265625 423.9965209960938 2374.651123046875 425.7916259765625 2371.585205078125 427.8817138671875 C 2368.547607421875 429.9525756835938 2365.691162109375 432.3309326171875 2363.094970703125 434.9508056640625 C 2360.49853515625 437.5709228515625 2358.14111328125 440.4540405273438 2356.088623046875 443.5200805664063 C 2354.016357421875 446.6152954101563 2352.236572265625 449.9241638183594 2350.798828125 453.354736328125 C 2347.80712890625 460.4928894042969 2346.2900390625 468.0768737792969 2346.2900390625 475.89599609375 C 2346.2900390625 483.5581665039063 2347.75146484375 491.0019226074219 2350.6337890625 498.0205078125 C 2353.41552734375 504.7944946289063 2357.406494140625 510.9129333496094 2362.49560546875 516.205810546875 L 2363.337890625 517.081787109375 L 2362.948486328125 518.23291015625 C 2362.881103515625 518.43212890625 2361.26123046875 523.1754150390625 2358.109375 528.56982421875 C 2355.560302734375 532.9329833984375 2352.796875 536.4105224609375 2349.84912109375 538.9727172851563 C 2361.7333984375 538.8223266601563 2370.1572265625 537.8438720703125 2380.672607421875 531.4774169921875 C 2381.096923828125 531.2203979492188 2381.46484375 530.949951171875 2381.83056640625 530.6263427734375 L 2382.728515625 529.8316650390625 L 2383.852294921875 530.2491455078125 C 2390.181640625 532.5999755859375 2396.8408203125 533.7919921875 2403.64501953125 533.7919921875 C 2411.386474609375 533.7919921875 2418.8955078125 532.2623901367188 2425.963623046875 529.2456665039063 C 2429.361328125 527.7954711914063 2432.638671875 526.0003662109375 2435.704345703125 523.9102783203125 C 2438.741943359375 521.8394165039063 2441.5986328125 519.4610595703125 2444.19482421875 516.8411865234375 C 2446.791259765625 514.2210693359375 2449.148681640625 511.3379516601563 2451.201171875 508.2719421386719 C 2453.2734375 505.1766967773438 2455.05322265625 501.8678283691406 2456.490966796875 498.437255859375 C 2459.48291015625 491.2991027832031 2461 483.7151184082031 2461 475.89599609375 C 2461 468.0768737792969 2459.48291015625 460.492919921875 2456.490966796875 453.3547668457031 C 2455.05322265625 449.9241943359375 2453.2734375 446.6153259277344 2451.201171875 443.5200805664063 C 2449.148681640625 440.4541015625 2446.791259765625 437.5709838867188 2444.19482421875 434.9508056640625 C 2441.5986328125 432.3309326171875 2438.741943359375 429.9525756835938 2435.704345703125 427.8817138671875 C 2432.638671875 425.7916259765625 2429.361328125 423.9965209960938 2425.963623046875 422.5463256835938 C 2418.8955078125 419.5296020507813 2411.386474609375 418 2403.64501953125 418 M 2403.64501953125 416 C 2436.426025390625 416 2463 442.8160400390625 2463 475.89599609375 C 2463 508.9760131835938 2436.426025390625 535.7919921875 2403.64501953125 535.7919921875 C 2396.444091796875 535.7919921875 2389.5419921875 534.4959716796875 2383.156005859375 532.1240234375 C 2382.7548828125 532.47900390625 2382.294921875 532.8330078125 2381.708984375 533.18798828125 C 2368.805908203125 541 2358.9130859375 541 2343 541 C 2354.722900390625 536.0540161132813 2360.946044921875 517.9110107421875 2361.053955078125 517.5919799804688 C 2350.68505859375 506.8080139160156 2344.2900390625 492.1099853515625 2344.2900390625 475.89599609375 C 2344.2900390625 442.8160400390625 2370.863037109375 416 2403.64501953125 416 Z"/></g><path class="b" d="M2383,461v5.867l17,17.6V505l6-5V484.467l17-17.6V461Z"/><path class="b" d="M2423,466.867V461h-40v5.867"/><line class="b" x2="40" transform="translate(2383 466)"/></g></svg>