<?xml version="1.0" encoding="utf-8"?>
<!-- Generator: Adobe Illustrator 19.2.0, SVG Export Plug-In . SVG Version: 6.00 Build 0)  -->
<svg version="1.1" id="Layer_1" xmlns="http://www.w3.org/2000/svg" xmlns:xlink="http://www.w3.org/1999/xlink" x="0px" y="0px"
	 viewBox="0 0 42 42" style="enable-background:new 0 0 42 42;" xml:space="preserve">
<style type="text/css">
	.st0{fill:#FFFFFF;}
	.st1{fill:#839DC3;}
</style>
<g>
	<path class="st0" d="M39,42H3c-1.7,0-3-1.3-3-3V3c0-1.7,1.3-3,3-3h36c1.7,0,3,1.3,3,3v36C42,40.7,40.7,42,39,42z"/>
	<g>
		<path class="st1" d="M29.4,14.5c0,1.1-0.9,2-2,2H14c-1.1,0-2-0.9-2-2l0,0c0-1.1,0.9-2,2-2h13.4C28.5,12.4,29.4,13.3,29.4,14.5
			L29.4,14.5z"/>
		<path class="st1" d="M27.8,18.5c-0.1,0-0.3,0-0.4,0H14c-1.1,0-2,0.9-2,2c0,1.1,0.9,2,2,2h9.8L27.8,18.5z"/>
		<path class="st1" d="M19,27.3l2.7-2.7H14c-1.1,0-2,0.9-2,2c0,1.1,0.9,2,2,2h4.8L19,27.3z"/>
		<g>
			<rect x="21.5" y="22.9" transform="matrix(0.7071 -0.7071 0.7071 0.7071 -9.7124 25.5912)" class="st1" width="9" height="3.3"/>
			<polygon class="st1" points="32.6,20.3 30.3,18 28.9,19.3 31.2,21.6 			"/>
			<polygon class="st1" points="23.1,29.9 20.7,27.5 20,30.6 			"/>
		</g>
	</g>
</g>
</svg>
