<?xml version="1.0" encoding="utf-8"?>
<!-- Generator: Adobe Illustrator 19.2.0, SVG Export Plug-In . SVG Version: 6.00 Build 0)  -->
<svg version="1.1" id="Layer_1" xmlns="http://www.w3.org/2000/svg" xmlns:xlink="http://www.w3.org/1999/xlink" x="0px" y="0px"
	 viewBox="0 0 69 55" style="enable-background:new 0 0 69 55;" xml:space="preserve">
<style type="text/css">
	.st0{fill:#839DC3;}
	.st1{fill:#FFFFFF;}
</style>
<g>
	<path class="st0" d="M248.7,773.5h-49c-5.5,0-10-4.5-10-10v-35c0-5.5,4.5-10,10-10h49c5.5,0,10,4.5,10,10v35
		C258.7,769,254.2,773.5,248.7,773.5z"/>
	<g>
		<path class="st1" d="M235.1,736c0,1.6-1.3,2.9-2.9,2.9h-19.2c-1.6,0-2.9-1.3-2.9-2.9l0,0c0-1.6,1.3-2.9,2.9-2.9h19.2
			C233.8,733.2,235.1,734.5,235.1,736L235.1,736z"/>
		<path class="st1" d="M222.5,741.8h-9.5c-1.6,0-2.9,1.3-2.9,2.9c0,1.6,1.3,2.9,2.9,2.9h6.3C219.7,745.2,220.8,743.2,222.5,741.8z"
			/>
		<path class="st1" d="M219.5,750.4h-6.4c-1.6,0-2.9,1.3-2.9,2.9c0,1.6,1.3,2.9,2.9,2.9h10.4C221.5,754.9,220,752.8,219.5,750.4z"/>
		<path class="st1" d="M238.3,756.7l-4.3-4.3c0.7-1.1,1.1-2.4,1.1-3.8c0-3.8-3.1-7-7-7s-7,3.1-7,7s3.1,7,7,7c1.4,0,2.7-0.4,3.8-1.1
			l4.3,4.3L238.3,756.7z M224.1,748.6c0-2.3,1.8-4.1,4.1-4.1s4.1,1.8,4.1,4.1c0,2.3-1.8,4.1-4.1,4.1S224.1,750.9,224.1,748.6z"/>
	</g>
</g>
<g>
	<path class="st0" d="M59,55H10C4.5,55,0,50.5,0,45V10C0,4.5,4.5,0,10,0h49c5.5,0,10,4.5,10,10v35C69,50.5,64.5,55,59,55z"/>
	<g>
		<path class="st1" d="M46.2,17.9c0,1.6-1.3,2.9-2.9,2.9H24.2c-1.6,0-2.9-1.3-2.9-2.9l0,0c0-1.6,1.3-2.9,2.9-2.9h19.2
			C44.9,15.1,46.2,16.4,46.2,17.9L46.2,17.9z"/>
		<path class="st1" d="M43.9,23.7c-0.2,0-0.4-0.1-0.6-0.1H24.2c-1.6,0-2.9,1.3-2.9,2.9s1.3,2.9,2.9,2.9h14.1L43.9,23.7z"/>
		<path class="st1" d="M31.4,36.2l3.9-3.9H24.2c-1.6,0-2.9,1.3-2.9,2.9c0,1.6,1.3,2.9,2.9,2.9H31L31.4,36.2z"/>
		<g>
			
				<rect x="35" y="29.9" transform="matrix(0.7071 -0.7071 0.7071 0.7071 -10.7213 38.7438)" class="st1" width="12.9" height="4.7"/>
			<polygon class="st1" points="50.7,26.3 47.5,23 45.5,24.9 48.7,28.2 			"/>
			<polygon class="st1" points="37.3,40 33.7,36.6 32.8,40.9 			"/>
		</g>
	</g>
</g>
</svg>
