<?xml version="1.0" encoding="utf-8"?>
<!-- Generator: Adobe Illustrator 19.2.0, SVG Export Plug-In . SVG Version: 6.00 Build 0)  -->
<svg version="1.1" id="Layer_1" xmlns="http://www.w3.org/2000/svg" xmlns:xlink="http://www.w3.org/1999/xlink" x="0px" y="0px"
	 viewBox="0 0 27 27" style="enable-background:new 0 0 27 27;" xml:space="preserve">
<style type="text/css">
	.st0{fill:#839DC3;}
	.st1{fill:#FFFFFF;}
</style>
<g>
	<path class="st0" d="M24,27H3c-1.7,0-3-1.3-3-3V3c0-1.7,1.3-3,3-3h21c1.7,0,3,1.3,3,3v21C27,25.7,25.7,27,24,27z"/>
	<g>
		<path class="st1" d="M19.7,8.9c0,0.8-0.8,1.4-1.9,1.4H8.5c-1,0-1.9-0.6-1.9-1.4s0.8-1.4,1.9-1.4h9.3C18.8,7.5,19.7,8.1,19.7,8.9z"
			/>
		<g>
			<polygon class="st1" points="21.5,14.9 18.7,14.9 18.7,12.1 16.9,12.1 16.9,14.9 14.1,14.9 14.1,16.7 16.9,16.7 16.9,19.5 
				18.7,19.5 18.7,16.7 21.5,16.7 			"/>
		</g>
		<path class="st1" d="M16,11.2H8.5c-1,0-1.9,0.6-1.9,1.4c0,0.8,0.8,1.4,1.9,1.4H16V11.2z"/>
		<path class="st1" d="M13.2,14.9H8.5c-1,0-1.9,0.6-1.9,1.4s0.8,1.4,1.9,1.4h4.6V14.9z"/>
	</g>
</g>
</svg>
