<?xml version="1.0" encoding="utf-8"?>
<!-- Generator: Adobe Illustrator 19.2.0, SVG Export Plug-In . SVG Version: 6.00 Build 0)  -->
<svg version="1.1" id="Layer_1" xmlns="http://www.w3.org/2000/svg" xmlns:xlink="http://www.w3.org/1999/xlink" x="0px" y="0px"
	 viewBox="0 0 69 55" style="enable-background:new 0 0 69 55;" xml:space="preserve">
<style type="text/css">
	.st0{fill:#839DC3;}
	.st1{fill:#FFFFFF;}
</style>
<g>
	<path class="st0" d="M248.7,773.5h-49c-5.5,0-10-4.5-10-10v-35c0-5.5,4.5-10,10-10h49c5.5,0,10,4.5,10,10v35
		C258.7,769,254.2,773.5,248.7,773.5z"/>
	<g>
		<path class="st1" d="M235.1,736c0,1.6-1.3,2.9-2.9,2.9h-19.2c-1.6,0-2.9-1.3-2.9-2.9l0,0c0-1.6,1.3-2.9,2.9-2.9h19.2
			C233.8,733.2,235.1,734.5,235.1,736L235.1,736z"/>
		<path class="st1" d="M222.5,741.8h-9.5c-1.6,0-2.9,1.3-2.9,2.9c0,1.6,1.3,2.9,2.9,2.9h6.3C219.7,745.2,220.8,743.2,222.5,741.8z"
			/>
		<path class="st1" d="M219.5,750.4h-6.4c-1.6,0-2.9,1.3-2.9,2.9c0,1.6,1.3,2.9,2.9,2.9h10.4C221.5,754.9,220,752.8,219.5,750.4z"/>
		<path class="st1" d="M238.3,756.7l-4.3-4.3c0.7-1.1,1.1-2.4,1.1-3.8c0-3.8-3.1-7-7-7s-7,3.1-7,7s3.1,7,7,7c1.4,0,2.7-0.4,3.8-1.1
			l4.3,4.3L238.3,756.7z M224.1,748.6c0-2.3,1.8-4.1,4.1-4.1s4.1,1.8,4.1,4.1c0,2.3-1.8,4.1-4.1,4.1S224.1,750.9,224.1,748.6z"/>
	</g>
</g>
<g>
	<path class="st0" d="M59,55H10C4.5,55,0,50.5,0,45V10C0,4.5,4.5,0,10,0h49c5.5,0,10,4.5,10,10v35C69,50.5,64.5,55,59,55z"/>
	<g>
		<path class="st1" d="M46.1,18.4c0,1.6-1.3,2.9-2.9,2.9H24c-1.6,0-2.9-1.3-2.9-2.9l0,0c0-1.6,1.3-2.9,2.9-2.9h19.2
			C44.8,15.5,46.1,16.8,46.1,18.4L46.1,18.4z"/>
		<g>
			<polygon class="st1" points="51.8,29.9 46.1,29.9 46.1,24.1 42.3,24.1 42.3,29.9 36.5,29.9 36.5,33.7 42.3,33.7 42.3,39.5 
				46.1,39.5 46.1,33.7 51.8,33.7 			"/>
		</g>
		<path class="st1" d="M34.6,28h5.8v-3.8H24c-1.6,0-2.9,1.3-2.9,2.9s1.3,2.9,2.9,2.9h10.5V28z"/>
		<path class="st1" d="M34.6,35.6v-2.9H24c-1.6,0-2.9,1.3-2.9,2.9c0,1.6,1.3,2.9,2.9,2.9h16.3v-2.9H34.6z"/>
	</g>
</g>
</svg>
