<?xml version="1.0" encoding="utf-8"?>
<!-- Generator: Adobe Illustrator 19.2.0, SVG Export Plug-In . SVG Version: 6.00 Build 0)  -->
<svg version="1.1" id="Layer_1" xmlns="http://www.w3.org/2000/svg" xmlns:xlink="http://www.w3.org/1999/xlink" x="0px" y="0px"
	 viewBox="0 0 42 42" style="enable-background:new 0 0 42 42;" xml:space="preserve">
<style type="text/css">
	.st0{fill:#FFFFFF;}
	.st1{fill:#839DC3;}
</style>
<g>
	<path class="st0" d="M39,42H3c-1.7,0-3-1.3-3-3V3c0-1.7,1.3-3,3-3h36c1.7,0,3,1.3,3,3v36C42,40.7,40.7,42,39,42z"/>
	<g>
		<path class="st1" d="M29.6,14.6c0,1.1-0.9,2-2,2H14.2c-1.1,0-2-0.9-2-2l0,0c0-1.1,0.9-2,2-2h13.4C28.7,12.6,29.6,13.5,29.6,14.6
			L29.6,14.6z"/>
		<g>
			<polygon class="st1" points="33.6,22.6 29.6,22.6 29.6,18.6 26.9,18.6 26.9,22.6 22.9,22.6 22.9,25.3 26.9,25.3 26.9,29.3 
				29.6,29.3 29.6,25.3 33.6,25.3 			"/>
		</g>
		<path class="st1" d="M21.6,21.3h4v-2.7H14.2c-1.1,0-2,0.9-2,2c0,1.1,0.9,2,2,2h7.4V21.3z"/>
		<path class="st1" d="M21.6,26.6v-2h-7.4c-1.1,0-2,0.9-2,2c0,1.1,0.9,2,2,2h11.4v-2H21.6z"/>
	</g>
</g>
</svg>
