<svg xmlns="http://www.w3.org/2000/svg" viewBox="0 0 42 42" enable-background="new 0 0 42 42"><circle cx="21" cy="21" r="21" fill="#fff"/><g fill="none" stroke="#f2cf33" stroke-miterlimit="10"><path d="m25.4 19.6c.2.6.4 1.2.4 1.8 0 2.9-2.4 5.3-5.3 5.3s-5.3-2.4-5.3-5.3 2.4-5.3 5.3-5.3c.6 0 1.2.1 1.8.4" stroke-width="1.9"/><path d="m25 13.2c-1.6-.7-3.9-1.2-4.5-1.2-5.2 0-9.5 4.3-9.5 9.5s4.3 9.5 9.5 9.5 9.5-4.3 9.5-9.5c0-1.7-.4-3.2-1.1-4.5" stroke-width="2.2"/><path d="m28 14l-8 8" stroke-width="1.2"/><path d="M27.5,11v3.5H31"/></g><path d="m20.6 23.2c-1 0-1.8-.8-1.8-1.8s.8-1.8 1.8-1.8 1.8.8 1.8 1.8-.9 1.8-1.8 1.8" fill="#f2cf33"/><g fill="none" stroke="#f2cf33" stroke-miterlimit="10"><path d="M29.5,9v3.5H33"/><path d="M31.5,7v3.5H35"/></g></svg>