<svg xmlns="http://www.w3.org/2000/svg" viewBox="0 0 32 32" enable-background="new 0 0 32 32"><circle cx="16" cy="16" r="16" fill="#f2cf33"/><g fill="none" stroke="#fff" stroke-miterlimit="10"><path d="m19.2 15.2c.2.4.3.9.3 1.3 0 2.2-1.8 3.9-3.9 3.9s-3.9-1.8-3.9-3.9 1.8-3.9 3.9-3.9c.4 0 .9.1 1.3.3" stroke-width="1.4"/><path d="m18.8 10.4c-1.1-.5-2.9-.9-3.3-.9-3.9 0-7 3.2-7 7s3.1 7 7 7 7-3.1 7-7c0-1.2-.3-2.4-.8-3.3" stroke-width="1.6"/><path d="m21 11l-6 6"/><path d="M20.5,9v2.5H23"/></g><path d="m15.5 17.8c-.7 0-1.3-.6-1.3-1.3 0-.7.6-1.3 1.3-1.3.7 0 1.3.6 1.3 1.3 0 .7-.6 1.3-1.3 1.3" fill="#fff"/><path d="M22.5,7v2.5H25" fill="none" stroke="#fff" stroke-miterlimit="10"/></svg>