<svg xmlns="http://www.w3.org/2000/svg" viewBox="0 0 55 55" enable-background="new 0 0 55 55"><circle cx="27.5" cy="27.5" r="27.5" fill="#f2cf33"/><g fill="none" stroke="#fff" stroke-miterlimit="10"><path d="m32.8 26.1c.3.7.5 1.4.5 2.2 0 3.6-2.9 6.5-6.5 6.5s-6.5-2.9-6.5-6.5 2.9-6.5 6.5-6.5c.7 0 1.4.2 2.2.5" stroke-width="2"/><path d="m32.2 18.2c-1.9-.8-4.8-1.4-5.4-1.4-6.4 0-11.5 5.1-11.5 11.5s5.1 11.4 11.5 11.4 11.5-5.1 11.5-11.5c0-2.1-.5-3.8-1.3-5.4" stroke-width="2.4"/><path d="M36,19L26,29" stroke-width="2"/></g><path d="m26.8 30.5c-1.2 0-2.3-1.1-2.3-2.3 0-1.2 1.1-2.3 2.3-2.3 1.2 0 2.3 1.1 2.3 2.3 0 1.2-1.1 2.3-2.3 2.3" fill="#fff"/><g fill="none" stroke="#fff" stroke-miterlimit="10"><path d="M35.5,15v4.5H40"/><path d="M37.5,13v4.5H42"/><path d="M39.5,11v4.5H44"/></g></svg>