<?xml version="1.0" encoding="utf-8"?>
<!-- Generator: Adobe Illustrator 19.2.0, SVG Export Plug-In . SVG Version: 6.00 Build 0)  -->
<svg version="1.1" id="Слой_1" xmlns="http://www.w3.org/2000/svg" xmlns:xlink="http://www.w3.org/1999/xlink" x="0px" y="0px"
	 viewBox="0 0 16 48" style="enable-background:new 0 0 16 48;" xml:space="preserve">
<style type="text/css">
	.st0{display:none;}
	.st1{fill:#FFAF56;}
	.st2{fill:#FFC360;}
	.st3{fill:#FFCE65;}
</style>
<g id="Layer_2" class="st0">
</g>
<g id="Layer_5">
	<g>
		<polygon class="st1" points="8,9.4 4,5.6 4,10.9 4.1,11 11.9,11 12,10.9 12,5.6 		"/>
		<polygon class="st1" points="11.5,5 4.4,5 7.9,8.6 		"/>
	</g>
</g>
<g id="Layer_5_1_">
	<g>
		<polygon class="st2" points="8,25.5 4,21.5 4,26.9 4.1,27 11.9,27 12,26.9 12,21.5 		"/>
		<polygon class="st2" points="11.5,21 4.4,21 7.9,24.5 		"/>
	</g>
</g>
<g id="Layer_5_2_">
	<g>
		<polygon class="st3" points="8,41.5 4,37.6 4,43 4.1,43.1 11.9,43.1 12,43 12,37.6 		"/>
		<polygon class="st3" points="11.5,37.1 4.4,37.1 7.9,40.6 		"/>
	</g>
</g>
</svg>
