<?xml version="1.0" encoding="utf-8"?>
<!-- Generator: Adobe Illustrator 19.2.0, SVG Export Plug-In . SVG Version: 6.00 Build 0)  -->
<svg version="1.1" id="Слой_1" xmlns="http://www.w3.org/2000/svg" xmlns:xlink="http://www.w3.org/1999/xlink" x="0px" y="0px"
	 viewBox="0 0 16 48" style="enable-background:new 0 0 16 48;" xml:space="preserve">
<style type="text/css">
	.st0{fill:#6F70BA;}
	.st1{fill:#7C7DCC;}
	.st2{fill:#8384D6;}
</style>
<g>
	<path class="st0" d="M9.1,7H6.9c0,0.3,0,0.6,0,1s0,0.7,0,1h2.2c0-0.3,0-0.6,0-1S9.1,7.3,9.1,7z"/>
	<path class="st0" d="M7,9.5c0.1,1,0.4,1.7,0.7,2c0.1,0,0.2,0,0.3,0s0.2,0,0.3,0c0.3-0.3,0.6-1,0.7-2H7z"/>
	<path class="st0" d="M9.7,6.5h1.8C11,5.6,10.2,5,9.2,4.7C9.4,5.2,9.6,5.8,9.7,6.5z"/>
	<path class="st0" d="M9.8,8c0,0.3,0,0.7,0,1h1.9c0.1-0.3,0.2-0.7,0.2-1c0-0.3-0.1-0.7-0.2-1h-2C9.7,7.3,9.8,7.7,9.8,8z"/>
	<path class="st0" d="M9,6.5c-0.1-1-0.4-1.7-0.7-2c-0.1,0-0.2,0-0.3,0c-0.1,0-0.2,0-0.3,0c-0.3,0.3-0.6,1-0.7,2H9z"/>
	<path class="st0" d="M6.2,8c0-0.3,0-0.7,0-1H4.4C4.3,7.3,4.2,7.7,4.2,8c0,0.3,0.1,0.7,0.2,1h1.9C6.3,8.7,6.2,8.3,6.2,8z"/>
	<path class="st0" d="M6.3,9.5H4.6C5,10.4,5.8,11,6.8,11.3C6.6,10.8,6.4,10.2,6.3,9.5z"/>
	<path class="st0" d="M9.7,9.5c-0.1,0.7-0.3,1.3-0.5,1.8c1-0.3,1.8-1,2.3-1.8H9.7z"/>
	<path class="st0" d="M6.3,6.5c0.1-0.7,0.3-1.3,0.5-1.8C5.8,5,5,5.6,4.6,6.5H6.3z"/>
</g>
<g>
	<path class="st1" d="M9.1,23H6.9c0,0.3,0,0.6,0,1s0,0.7,0,1h2.2c0-0.3,0-0.6,0-1S9.1,23.3,9.1,23z"/>
	<path class="st1" d="M7,25.5c0.1,1,0.4,1.7,0.7,2c0.1,0,0.2,0,0.3,0s0.2,0,0.3,0c0.3-0.3,0.6-1,0.7-2H7z"/>
	<path class="st1" d="M9.7,22.5h1.8c-0.4-0.9-1.3-1.5-2.3-1.8C9.4,21.2,9.6,21.8,9.7,22.5z"/>
	<path class="st1" d="M9.8,24c0,0.3,0,0.7,0,1h1.9c0.1-0.3,0.2-0.7,0.2-1s-0.1-0.7-0.2-1h-2C9.7,23.3,9.8,23.7,9.8,24z"/>
	<path class="st1" d="M9,22.5c-0.1-1-0.4-1.7-0.7-2c-0.1,0-0.2,0-0.3,0c-0.1,0-0.2,0-0.3,0c-0.3,0.3-0.6,1-0.7,2H9z"/>
	<path class="st1" d="M6.2,24c0-0.3,0-0.7,0-1H4.4c-0.1,0.3-0.2,0.7-0.2,1s0.1,0.7,0.2,1h1.9C6.3,24.7,6.2,24.3,6.2,24z"/>
	<path class="st1" d="M6.3,25.5H4.6C5,26.4,5.8,27,6.8,27.3C6.6,26.8,6.4,26.2,6.3,25.5z"/>
	<path class="st1" d="M9.7,25.5c-0.1,0.7-0.3,1.3-0.5,1.8c1-0.3,1.8-1,2.3-1.8H9.7z"/>
	<path class="st1" d="M6.3,22.5c0.1-0.7,0.3-1.3,0.5-1.8c-1,0.3-1.8,1-2.3,1.8H6.3z"/>
</g>
<g>
	<path class="st2" d="M9.1,39H6.9c0,0.3,0,0.6,0,1s0,0.7,0,1h2.2c0-0.3,0-0.6,0-1S9.1,39.3,9.1,39z"/>
	<path class="st2" d="M7,41.5c0.1,1,0.4,1.7,0.7,2c0.1,0,0.2,0,0.3,0s0.2,0,0.3,0c0.3-0.3,0.6-1,0.7-2H7z"/>
	<path class="st2" d="M9.7,38.5h1.8c-0.4-0.9-1.3-1.5-2.3-1.8C9.4,37.2,9.6,37.8,9.7,38.5z"/>
	<path class="st2" d="M9.8,40c0,0.3,0,0.7,0,1h1.9c0.1-0.3,0.2-0.7,0.2-1s-0.1-0.7-0.2-1h-2C9.7,39.3,9.8,39.7,9.8,40z"/>
	<path class="st2" d="M9,38.5c-0.1-1-0.4-1.7-0.7-2c-0.1,0-0.2,0-0.3,0c-0.1,0-0.2,0-0.3,0c-0.3,0.3-0.6,1-0.7,2H9z"/>
	<path class="st2" d="M6.2,40c0-0.3,0-0.7,0-1H4.4c-0.1,0.3-0.2,0.7-0.2,1s0.1,0.7,0.2,1h1.9C6.3,40.7,6.2,40.3,6.2,40z"/>
	<path class="st2" d="M6.3,41.5H4.6C5,42.4,5.8,43,6.8,43.3C6.6,42.8,6.4,42.2,6.3,41.5z"/>
	<path class="st2" d="M9.7,41.5c-0.1,0.7-0.3,1.3-0.5,1.8c1-0.3,1.8-1,2.3-1.8H9.7z"/>
	<path class="st2" d="M6.3,38.5c0.1-0.7,0.3-1.3,0.5-1.8c-1,0.3-1.8,1-2.3,1.8H6.3z"/>
</g>
</svg>
