<svg xmlns="http://www.w3.org/2000/svg" viewBox="0 0 42 42" enable-background="new 0 0 42 42"><circle cx="21" cy="21" r="21" fill="#fff"/><g fill="#e37479"><path d="m29.5 30c0-5-3.7-8-8.5-8s-8.5 3.1-8.5 8c3.1 0 13.7 0 17 0"/><circle cx="21" cy="16" r="4"/><path d="m21.5 33.5v-8h4l1.6 1h4.4v7z"/></g><path d="m25.4 26l1.6 1h4v6h-9v-7h3.4m.3-1h-.3-3.4-1v1 7 1h1 9 1v-1-6-1h-1-3.7l-1.4-.9-.2-.1z" fill="#fff"/><path fill="none" stroke="#e37479" stroke-width="1.3" stroke-miterlimit="10" d="m28 19l2.5 2.5 4.5-4.5"/></svg>