<?xml version="1.0" encoding="utf-8"?>
<!-- Svg Vector Icons : http://www.onlinewebfonts.com/icon -->
<!DOCTYPE svg PUBLIC "-//W3C//DTD SVG 1.1//EN" "http://www.w3.org/Graphics/SVG/1.1/DTD/svg11.dtd">
<svg version="1.1" xmlns="http://www.w3.org/2000/svg" xmlns:xlink="http://www.w3.org/1999/xlink" width="26" height="52" viewBox="0 0 512 1024" enable-background="new 0 0 26 52" xml:space="preserve">

<g><g fill="#98cd61" transform="translate(0.000000,260.000000) scale(0.0500000,-0.0500000)">
<path d="M1024,4971.2c-45-20.5-98.1-65.4-116.6-100.2c-34.8-57.3-36.8-298.5-36.8-4261c0-4128.1,0-4199.6,40.9-4263c81.8-134.9,10.2-128.8,1625.5-128.8c803.5,0,1461.9,4.1,1461.9,8.2c0,4.1-42.9,81.8-94.1,169.7c-179.9,304.6-304.6,629.7-376.2,991.7l-22.5,118.6h-799.5c-689,0-807.6,4.1-866.9,32.7c-94.1,45-157.4,153.3-155.4,269.9c0,104.3,42.9,173.8,147.2,245.4c67.5,45,71.6,45,858.7,45h789.2l26.6,206.5c22.5,184,77.7,439.6,114.5,535.7c14.3,32.7-34.8,34.8-848.5,34.8c-961,0-961,0-1044.8,137c-57.2,92-59.3,235.1-2,310.8c20.4,28.6,69.5,73.6,106.3,100.2l67.5,45h1006h1006L4043.9-351c73.6,98.1,231,271.9,351.7,388.5L4612.3,246H3260.8c-1502.8,0-1445.5-6.1-1533.5,137c-85.9,139-51.1,298.5,92,402.8c55.2,42.9,73.6,42.9,2441.3,55.2c2570.1,12.3,2615.1,12.3,2960.6-92c90-26.6,177.9-55.2,198.3-63.4c32.7-14.3,34.8,51.1,34.8,1204.3v1218.6h-950.8c-924.2,0-952.8,2-991.6,40.9s-40.9,67.5-40.9,950.7V5010H3289.4C1212.1,5010,1101.6,5008,1024,4971.2z M6481.1,2161.8c196.3-112.5,202.4-374.2,14.3-498.9l-69.5-47H4156.3c-2267.5,0-2269.5,0-2339.1,42.9c-196.3,122.7-171.7,427.3,45,521.4c49.1,22.5,484.6,26.6,2300.2,26.6l2238.9,2L6481.1,2161.8z"/><path d="M5757.3,4141c0-564.3,6.1-729.9,26.6-736.1c12.3-6.1,359.9-8.2,768.8-6.1l744.2,6.1l-758.6,732c-417.1,400.7-764.7,729.9-770.8,729.9S5757.3,4539.7,5757.3,4141z"/><path d="M6074.2,612c-601.1-81.8-1147-353.7-1574.4-785.1c-366-366-621.6-840.3-736.1-1359.7c-45-210.6-63.4-687-32.7-901.7c128.8-901.7,656.3-1654.1,1447.6-2058.9c425.3-216.7,754.5-296.5,1232.9-296.5c343.5-2.1,547.9,28.6,844.4,122.7c944.6,298.5,1672.5,1134.8,1844.3,2124.3c38.8,229,38.8,687,0,916c-96.1,552.1-357.8,1055-756.5,1455.8c-386.4,388.5-830.1,629.7-1369.9,746.3C6757.1,622.2,6284.8,642.7,6074.2,612z M8192.4-592.3c20.4-12.3,38.9-30.7,38.9-42.9c0-12.3-106.3-135-237.2-269.9C7390.9-1538.9,6990.2-2086.9,6522-2925.2c-110.4-196.3-227-400.8-259.7-453.9c-120.6-194.2-308.8-259.7-447.8-153.3c-36.8,28.6-137,159.5-220.8,290.3c-400.7,625.7-515.3,791.3-654.3,938.5c-149.3,159.5-441.6,406.9-660.4,554.1c-120.6,81.8-153.3,157.4-83.8,184c69.5,26.6,355.8,10.2,505-26.6c417.1-108.4,713.6-316.9,1106.2-783.1c55.2-65.4,104.3-118.6,112.5-118.6c8.2,0,71.6,81.8,139,182c455.9,656.3,1202.2,1343.3,1737.9,1598.9c102.2,49.1,302.6,128.8,349.6,139.1C8149.5-571.8,8169.9-582.1,8192.4-592.3z"/></g></g>
<g><g fill="#7fb841" transform="translate(0.000000,765.000000) scale(0.0500000,-0.0500000)">
<path d="M1024,4971.2c-45-20.5-98.1-65.4-116.6-100.2c-34.8-57.3-36.8-298.5-36.8-4261c0-4128.1,0-4199.6,40.9-4263c81.8-134.9,10.2-128.8,1625.5-128.8c803.5,0,1461.9,4.1,1461.9,8.2c0,4.1-42.9,81.8-94.1,169.7c-179.9,304.6-304.6,629.7-376.2,991.7l-22.5,118.6h-799.5c-689,0-807.6,4.1-866.9,32.7c-94.1,45-157.4,153.3-155.4,269.9c0,104.3,42.9,173.8,147.2,245.4c67.5,45,71.6,45,858.7,45h789.2l26.6,206.5c22.5,184,77.7,439.6,114.5,535.7c14.3,32.7-34.8,34.8-848.5,34.8c-961,0-961,0-1044.8,137c-57.2,92-59.3,235.1-2,310.8c20.4,28.6,69.5,73.6,106.3,100.2l67.5,45h1006h1006L4043.9-351c73.6,98.1,231,271.9,351.7,388.5L4612.3,246H3260.8c-1502.8,0-1445.5-6.1-1533.5,137c-85.9,139-51.1,298.5,92,402.8c55.2,42.9,73.6,42.9,2441.3,55.2c2570.1,12.3,2615.1,12.3,2960.6-92c90-26.6,177.9-55.2,198.3-63.4c32.7-14.3,34.8,51.1,34.8,1204.3v1218.6h-950.8c-924.2,0-952.8,2-991.6,40.9s-40.9,67.5-40.9,950.7V5010H3289.4C1212.1,5010,1101.6,5008,1024,4971.2z M6481.1,2161.8c196.3-112.5,202.4-374.2,14.3-498.9l-69.5-47H4156.3c-2267.5,0-2269.5,0-2339.1,42.9c-196.3,122.7-171.7,427.3,45,521.4c49.1,22.5,484.6,26.6,2300.2,26.6l2238.9,2L6481.1,2161.8z"/><path d="M5757.3,4141c0-564.3,6.1-729.9,26.6-736.1c12.3-6.1,359.9-8.2,768.8-6.1l744.2,6.1l-758.6,732c-417.1,400.7-764.7,729.9-770.8,729.9S5757.3,4539.7,5757.3,4141z"/><path d="M6074.2,612c-601.1-81.8-1147-353.7-1574.4-785.1c-366-366-621.6-840.3-736.1-1359.7c-45-210.6-63.4-687-32.7-901.7c128.8-901.7,656.3-1654.1,1447.6-2058.9c425.3-216.7,754.5-296.5,1232.9-296.5c343.5-2.1,547.9,28.6,844.4,122.7c944.6,298.5,1672.5,1134.8,1844.3,2124.3c38.8,229,38.8,687,0,916c-96.1,552.1-357.8,1055-756.5,1455.8c-386.4,388.5-830.1,629.7-1369.9,746.3C6757.1,622.2,6284.8,642.7,6074.2,612z M8192.4-592.3c20.4-12.3,38.9-30.7,38.9-42.9c0-12.3-106.3-135-237.2-269.9C7390.9-1538.9,6990.2-2086.9,6522-2925.2c-110.4-196.3-227-400.8-259.7-453.9c-120.6-194.2-308.8-259.7-447.8-153.3c-36.8,28.6-137,159.5-220.8,290.3c-400.7,625.7-515.3,791.3-654.3,938.5c-149.3,159.5-441.6,406.9-660.4,554.1c-120.6,81.8-153.3,157.4-83.8,184c69.5,26.6,355.8,10.2,505-26.6c417.1-108.4,713.6-316.9,1106.2-783.1c55.2-65.4,104.3-118.6,112.5-118.6c8.2,0,71.6,81.8,139,182c455.9,656.3,1202.2,1343.3,1737.9,1598.9c102.2,49.1,302.6,128.8,349.6,139.1C8149.5-571.8,8169.9-582.1,8192.4-592.3z"/></g></g>

</svg>