<svg xmlns="http://www.w3.org/2000/svg" viewBox="0 0 42 42" enable-background="new 0 0 42 42"><path d="m39 42h-36c-1.7 0-3-1.3-3-3v-36c0-1.7 1.3-3 3-3h36c1.7 0 3 1.3 3 3v36c0 1.7-1.3 3-3 3" fill="#fff"/><g fill="#9494eb"><path d="m13.2 26h13.6c.6 0 1.2-.6 1.2-1.2v-9.8l-8 8.2-8-8.2v9.9c.1.5.6 1.1 1.2 1.1"/><path d="m13.2 14c-.1 0-.2 0-.3 0l7 7.2 7-7.2c-.1 0-.2 0-.3 0h-13.4"/><path d="m29.8 17h-.8v8.8c0 .7-.5 1.2-1.2 1.2h-12.8v.8c0 .7.5 1.2 1.2 1.2h13.6c.7 0 1.2-.5 1.2-1.2v-9.6c0-.7-.5-1.2-1.2-1.2"/></g></svg>