<?xml version="1.0" encoding="utf-8"?>
<!-- Generator: Adobe Illustrator 19.1.0, SVG Export Plug-In . SVG Version: 6.00 Build 0)  -->
<svg version="1.1" id="Layer_1" xmlns="http://www.w3.org/2000/svg" xmlns:xlink="http://www.w3.org/1999/xlink" x="0px" y="0px"
	 viewBox="-285.8 368.9 69 55" style="enable-background:new -285.8 368.9 69 55;" xml:space="preserve">
<style type="text/css">
	.st0{fill:#9494EB;}
	.st1{fill:#FFFFFF;}
</style>
<path class="st0" d="M-226.8,423.9h-49c-5.5,0-10-4.5-10-10v-35c0-5.5,4.5-10,10-10h49c5.5,0,10,4.5,10,10v35
	C-216.8,419.4-221.3,423.9-226.8,423.9z"/>
<g>
	<g>
		<path class="st1" d="M-263,403h20c1.1,0,2-0.9,2-2v-14l-12,11l-12-11v14C-265,402.1-264.1,403-263,403z"/>
		<path class="st1" d="M-263.4,385l10.4,10l10.4-10C-242.7,385-263.3,385-263.4,385z"/>
	</g>
	<path class="st1" d="M-238,389h-1v14c0,1.1-0.9,2-2,2h-20v1c0,1.1,0.9,2,2,2h21c1.1,0,2-0.9,2-2v-15C-236,389.9-236.9,389-238,389z
		"/>
</g>
</svg>
