<?xml version="1.0" encoding="utf-8"?>
<svg version="1.1" xmlns="http://www.w3.org/2000/svg" viewBox="0 0 36 36" enable-background="new 0 0 36 36">
 <g id="g18086" transform="matrix(4.6798804,0,0,4.6798804,-14628.123,-100339.87)">
  <g id="bag_1_" transform="translate(2886.7719,21269.267)">
   <g id="handles_1_">
    <path id="path205" d="M242.8,172.1c-0.3,0.1-0.6,0.2-0.6,0.9v0.3h0.2V173c0-0.4,0.1-0.5,0.4-0.6
				C242.8,172.3,242.8,172.2,242.8,172.1L242.8,172.1z" fill="#2b79da"/>
    <path id="path207" d="M243.4,172c0,0.1,0,0.1,0,0.2c0.5-0.1,0.5,0.1,0.5,0.6v0.2h0.2v-0.1
				C244.1,172.1,244,171.9,243.4,172z" fill="#2b79da"/>
    <path id="path209" d="M241.3,173.5v-0.9c0-0.4,0.2-0.6,0.8-0.8c0.7-0.2,0.9,0.2,0.9,0.6v0.8h0.2v-0.7
				c0-0.6-0.2-1.1-1.1-0.9c-0.5,0.1-1,0.2-1,1.1v1L241.3,173.5L241.3,173.5z" fill="#2b79da"/>
   </g>
   <path id="path211" d="M245.1,172.9l-5.5,1.1v4.1l5.5,1.1l1.1-0.4v-5.3L245.1,172.9L245.1,172.9z M242,177.2l-1.2-0.2
			v-0.9h1.2V177.2z M242,175.9h-1.2v-1l1.2-0.2V175.9z M243.7,177.4l-1.5-0.2v-1.1h1.5V177.4z M243.7,175.9h-1.5v-1.1l1.5-0.2V175.9
			z" fill="#2b79da"/>
  </g>
 </g>
</svg>
