<svg height="24" viewBox="0 0 24 24" width="24" xmlns="http://www.w3.org/2000/svg"><path d="m0 0h24v24h-24z" fill="none"/><g fill="#fc5555" fill-opacity="0.5" transform="translate(4 3.999)"><path d="m7.99991655 15.5c-4.13546991 0-7.49992001-3.36448956-7.49992001-7.5 0-4.13550997 3.3644501-7.5 7.49992001-7.5 4.13546992 0 7.49992037 3.36449003 7.49992037 7.5 0 4.13551044-3.36445045 7.5-7.49992037 7.5z"/><path d="m7.99991655 1c-3.85977029 0-6.99992036 3.14019012-6.99992036 7s3.14015007 7 6.99992036 7c3.85976935 0 6.99992037-3.14019012 6.99992037-7s-3.14015102-7-6.99992037-7m0-1c4.41822958 0 7.99992037 3.58172035 7.99992037 8s-3.58169079 8-7.99992037 8-7.99992036-3.58172035-7.99992036-8 3.58169078-8 7.99992036-8z" fill="#ee2d2d"/></g></svg>
