<svg height="32" viewBox="0 0 32 32" width="32" xmlns="http://www.w3.org/2000/svg"><g fill="none"><g transform="translate(7.104 6.988)"><path d="m9.5 0a9.5 9.5 0 1 1 -9.5 9.5 9.5 9.5 0 0 1 9.5-9.5z"/><path d="m9.5 1c-4.68692017 0-8.5 3.81313038-8.5 8.50010014 0 4.68697071 3.81307983 8.50010013 8.5 8.50010013s8.5-3.81312942 8.5-8.50010013c0-4.68696976-3.81307983-8.50010014-8.5-8.50010014m0-1c5.24670982 0 9.5 4.25333977 9.5 9.50010014 0 5.24676036-4.25329018 9.50010013-9.5 9.50010013s-9.5-4.25333977-9.5-9.50010013c0-5.24676037 4.25329018-9.50010014 9.5-9.50010014z" fill="#8ecb60"/></g><path d="m0 0h32v32h-32z"/></g></svg>